<svg width="34" height="32" viewBox="0 0 34 32" fill="none" xmlns="http://www.w3.org/2000/svg">
<path d="M33.6673 0H0.333984V10H2.00065V28.3333C2.00065 29.2174 2.35184 30.0652 2.97696 30.6904C3.60208 31.3155 4.44993 31.6667 5.33398 31.6667H28.6673C29.5514 31.6667 30.3992 31.3155 31.0243 30.6904C31.6495 30.0652 32.0007 29.2174 32.0007 28.3333V10H33.6673V0ZM3.66732 3.33333H30.334V6.66667H3.66732V3.33333ZM28.6673 28.3333H5.33398V10H28.6673V28.3333ZM12.0007 13.3333H22.0007C22.0007 14.2174 21.6495 15.0652 21.0243 15.6904C20.3992 16.3155 19.5514 16.6667 18.6673 16.6667H15.334C14.4499 16.6667 13.6021 16.3155 12.977 15.6904C12.3518 15.0652 12.0007 14.2174 12.0007 13.3333Z" fill="#DAA520"/>
</svg>
