<svg width="30" height="30" viewBox="0 0 30 30" fill="none" xmlns="http://www.w3.org/2000/svg">
<path d="M13.7549 2.50391C15.0146 2.50391 16.2305 2.66504 17.4023 2.9873C18.5742 3.30957 19.668 3.77344 20.6836 4.37891C21.6992 4.98438 22.627 5.69727 23.4668 6.51758C24.3066 7.33789 25.0244 8.26562 25.6201 9.30078C26.2158 10.3359 26.6748 11.4346 26.9971 12.5967C27.3193 13.7588 27.4854 14.9746 27.4951 16.2441C27.4951 17.5039 27.334 18.7197 27.0117 19.8916C26.6895 21.0635 26.2256 22.1572 25.6201 23.1729C25.0146 24.1885 24.3018 25.1211 23.4814 25.9707C22.6611 26.8203 21.7334 27.5381 20.6982 28.124C19.6631 28.71 18.5645 29.1689 17.4023 29.501C16.2402 29.833 15.0244 29.999 13.7549 29.999C12.4854 29.999 11.2646 29.8379 10.0928 29.5156C8.9209 29.1934 7.82715 28.7295 6.81152 28.124C5.7959 27.5186 4.86816 26.8008 4.02832 25.9707C3.18848 25.1406 2.4707 24.2129 1.875 23.1875C1.2793 22.1621 0.820312 21.0684 0.498047 19.9062C0.175781 18.7441 0.00976562 17.5234 0 16.2441C0 14.9844 0.161133 13.7686 0.483398 12.5967C0.805664 11.4248 1.26953 10.3311 1.875 9.31543C2.48047 8.2998 3.19824 7.37207 4.02832 6.53223C4.8584 5.69238 5.78613 4.97461 6.81152 4.37891C7.83691 3.7832 8.93066 3.32422 10.0928 3.00195C11.2549 2.67969 12.4756 2.51367 13.7549 2.50391ZM13.7549 27.9922C14.8389 27.9922 15.8789 27.8555 16.875 27.582C17.8711 27.3086 18.8086 26.9131 19.6875 26.3955C20.5664 25.8779 21.3574 25.2627 22.0605 24.5498C22.7637 23.8369 23.374 23.0459 23.8916 22.1768C24.4092 21.3076 24.8047 20.375 25.0781 19.3789C25.3516 18.3828 25.4932 17.3379 25.5029 16.2441C25.5029 15.1699 25.3662 14.1348 25.0928 13.1387C24.8193 12.1426 24.4238 11.2051 23.9062 10.3262C23.3887 9.44727 22.7734 8.65625 22.0605 7.95312C21.3477 7.25 20.5518 6.63477 19.6729 6.10742C18.7939 5.58008 17.8613 5.18457 16.875 4.9209C15.8887 4.65723 14.8486 4.51562 13.7549 4.49609C12.6709 4.49609 11.6309 4.63281 10.6348 4.90625C9.63867 5.17969 8.70117 5.5752 7.82227 6.09277C6.94336 6.61035 6.15234 7.22559 5.44922 7.93848C4.74609 8.65137 4.13574 9.44238 3.61816 10.3115C3.10059 11.1807 2.70508 12.1133 2.43164 13.1094C2.1582 14.1055 2.0166 15.1504 2.00684 16.2441C2.00684 17.3281 2.14355 18.3682 2.41699 19.3643C2.69043 20.3604 3.08594 21.2979 3.60352 22.1768C4.12109 23.0557 4.73145 23.8467 5.43457 24.5498C6.1377 25.2529 6.93359 25.8682 7.82227 26.3955C8.71094 26.9229 9.64355 27.3135 10.6201 27.5674C11.5967 27.8213 12.6416 27.9629 13.7549 27.9922ZM17.5049 12.4941H19.9951V22.499H10.0049V19.9941H15.7324L7.86621 12.1279L9.63867 10.3701L17.5049 18.2363V12.4941Z" fill="#DAA520"/>
</svg>
