<svg width="40" height="40" viewBox="0 0 40 40" fill="none" xmlns="http://www.w3.org/2000/svg">
<path d="M17.9171 4.27698C18.5505 3.91128 19.269 3.71875 20.0004 3.71875C20.7318 3.71875 21.4503 3.91128 22.0837 4.27698L32.5738 10.332C33.2071 10.6977 33.7331 11.2236 34.0988 11.857C34.4645 12.4904 34.6571 13.2089 34.6571 13.9403V26.0536C34.6571 26.785 34.4645 27.5035 34.0988 28.1369C33.7331 28.7703 33.2071 29.2963 32.5738 29.662L22.0837 35.7186C21.4503 36.0843 20.7318 36.2769 20.0004 36.2769C19.269 36.2769 18.5505 36.0843 17.9171 35.7186L7.42708 29.662C6.79369 29.2963 6.2677 28.7703 5.902 28.1369C5.5363 27.5035 5.34377 26.785 5.34375 26.0536V13.942C5.34348 13.2103 5.53587 12.4915 5.90159 11.8578C6.2673 11.224 6.79344 10.6978 7.42708 10.332L17.9171 4.27698ZM20.0004 14.9986C18.6743 14.9986 17.4026 15.5254 16.4649 16.4631C15.5272 17.4008 15.0004 18.6726 15.0004 19.9986C15.0004 21.3247 15.5272 22.5965 16.4649 23.5342C17.4026 24.4719 18.6743 24.9986 20.0004 24.9986C21.3265 24.9986 22.5983 24.4719 23.5359 23.5342C24.4736 22.5965 25.0004 21.3247 25.0004 19.9986C25.0004 18.6726 24.4736 17.4008 23.5359 16.4631C22.5983 15.5254 21.3265 14.9986 20.0004 14.9986Z" fill="black"/>
</svg>
