<svg width="36" height="33" viewBox="0 0 36 33" fill="none" xmlns="http://www.w3.org/2000/svg">
<path d="M35.1673 29.3346L28.334 22.5013C29.0006 20.8346 28.6673 18.668 27.1673 17.3346C25.6673 15.8346 23.5007 15.5013 21.6673 16.3346L24.834 19.5013L22.5007 21.8346L19.1673 18.5013C18.334 20.3346 18.6673 22.5013 20.1673 24.168C21.6673 25.668 23.6673 26.0013 25.334 25.3346L32.1673 32.168C32.5007 32.5013 33.0007 32.5013 33.1673 32.168L34.834 30.5013C35.334 30.0013 35.334 29.5013 35.1673 29.3346ZM18.6673 27.3346H0.333984V24.0013C0.333984 20.3346 6.33398 17.3346 13.6673 17.3346C14.5007 17.3346 15.334 17.3346 16.0007 17.5013C15.5007 18.5013 15.334 19.5013 15.334 20.668C15.334 23.3346 16.6673 25.8346 18.6673 27.3346ZM13.6673 0.667969C10.0007 0.667969 7.00065 3.66797 7.00065 7.33464C7.00065 11.0013 10.0007 14.0013 13.6673 14.0013C17.334 14.0013 20.334 11.0013 20.334 7.33464C20.334 3.66797 17.334 0.667969 13.6673 0.667969Z" fill="#DAA520"/>
</svg>
