<svg width="16" height="16" viewBox="0 0 16 16" fill="none" xmlns="http://www.w3.org/2000/svg">
<mask id="path-1-inside-1_939_280" fill="white">
<path fill-rule="evenodd" clip-rule="evenodd" d="M10.3405 0.888419C8.81112 0.021569 6.93887 0.0215686 5.4095 0.888418L4.17383 1.5888L2.94945 2.30873C1.43405 3.19978 0.497921 4.8212 0.483947 6.5791L0.472656 7.99941L0.483947 9.41972C0.497921 11.1776 1.43405 12.799 2.94945 13.6901L4.17383 14.41L5.4095 15.1104C6.93887 15.9773 8.81112 15.9773 10.3405 15.1104L11.5762 14.41L12.8005 13.6901C14.3159 12.799 15.2521 11.1776 15.266 9.41972L15.2773 7.99941L15.266 6.5791C15.2521 4.8212 14.3159 3.19978 12.8005 2.30873L11.5762 1.5888L10.3405 0.888419ZM7.875 11.0624C9.56666 11.0624 10.938 9.69108 10.938 7.99941C10.938 6.30774 9.56666 4.93637 7.875 4.93637C6.18333 4.93637 4.81196 6.30774 4.81196 7.99941C4.81196 9.69108 6.18333 11.0624 7.875 11.0624Z"/>
</mask>
<path d="M5.4095 0.888418L4.9164 0.0184459V0.0184459L5.4095 0.888418ZM10.3405 0.888419L9.8474 1.75839V1.75839L10.3405 0.888419ZM4.17383 1.5888L3.68073 0.718823L3.67381 0.722743L3.66696 0.726772L4.17383 1.5888ZM2.94945 2.30873L2.44258 1.4467L2.44258 1.4467L2.94945 2.30873ZM0.483947 6.5791L-0.516022 6.57115L0.483947 6.5791ZM0.472656 7.99941L-0.527312 7.99146L-0.527375 7.99941L-0.527312 8.00736L0.472656 7.99941ZM0.483947 9.41972L-0.516022 9.42767L0.483947 9.41972ZM2.94945 13.6901L2.44258 14.5521H2.44258L2.94945 13.6901ZM4.17383 14.41L3.66696 15.272L3.67381 15.2761L3.68073 15.28L4.17383 14.41ZM5.4095 15.1104L4.9164 15.9804L5.4095 15.1104ZM10.3405 15.1104L9.84739 14.2404L10.3405 15.1104ZM11.5762 14.41L12.0693 15.28L12.0762 15.2761L12.083 15.272L11.5762 14.41ZM12.8005 13.6901L12.2937 12.8281L12.8005 13.6901ZM15.266 9.41972L14.2661 9.41177L15.266 9.41972ZM15.2773 7.99941L16.2773 8.00736L16.2774 7.99941L16.2773 7.99146L15.2773 7.99941ZM15.266 6.5791L14.2661 6.58705L15.266 6.5791ZM12.8005 2.30873L12.2937 3.17075V3.17075L12.8005 2.30873ZM11.5762 1.5888L12.083 0.726772L12.0762 0.722743L12.0693 0.718823L11.5762 1.5888ZM5.9026 1.75839C7.1261 1.06491 8.62389 1.06491 9.8474 1.75839L10.8336 0.0184463C8.99835 -1.02177 6.75165 -1.02177 4.9164 0.0184459L5.9026 1.75839ZM4.66693 2.45877L5.9026 1.75839L4.9164 0.0184459L3.68073 0.718823L4.66693 2.45877ZM3.45632 3.17075L4.68069 2.45082L3.66696 0.726772L2.44258 1.4467L3.45632 3.17075ZM1.48391 6.58705C1.49509 5.18073 2.24399 3.88359 3.45632 3.17075L2.44258 1.4467C0.624097 2.51597 -0.499253 4.46167 -0.516022 6.57115L1.48391 6.58705ZM1.47262 8.00736L1.48391 6.58705L-0.516022 6.57115L-0.527312 7.99146L1.47262 8.00736ZM1.48391 9.41177L1.47262 7.99146L-0.527312 8.00736L-0.516022 9.42767L1.48391 9.41177ZM3.45632 12.8281C2.244 12.1152 1.49509 10.8181 1.48391 9.41177L-0.516022 9.42767C-0.499253 11.5372 0.624098 13.4829 2.44258 14.5521L3.45632 12.8281ZM4.68069 13.548L3.45632 12.8281L2.44258 14.5521L3.66696 15.272L4.68069 13.548ZM5.9026 14.2404L4.66693 13.5401L3.68073 15.28L4.9164 15.9804L5.9026 14.2404ZM9.84739 14.2404C8.62389 14.9339 7.1261 14.9339 5.9026 14.2404L4.9164 15.9804C6.75165 17.0206 8.99835 17.0206 10.8336 15.9804L9.84739 14.2404ZM11.0831 13.5401L9.84739 14.2404L10.8336 15.9804L12.0693 15.28L11.0831 13.5401ZM12.2937 12.8281L11.0693 13.548L12.083 15.272L13.3074 14.5521L12.2937 12.8281ZM14.2661 9.41177C14.2549 10.8181 13.506 12.1152 12.2937 12.8281L13.3074 14.5521C15.1259 13.4829 16.2492 11.5372 16.266 9.42767L14.2661 9.41177ZM14.2774 7.99146L14.2661 9.41177L16.266 9.42767L16.2773 8.00736L14.2774 7.99146ZM14.2661 6.58705L14.2774 8.00736L16.2773 7.99146L16.266 6.57115L14.2661 6.58705ZM12.2937 3.17075C13.506 3.88359 14.2549 5.18073 14.2661 6.58705L16.266 6.57115C16.2492 4.46167 15.1259 2.51597 13.3074 1.4467L12.2937 3.17075ZM11.0693 2.45082L12.2937 3.17075L13.3074 1.4467L12.083 0.726772L11.0693 2.45082ZM9.8474 1.75839L11.0831 2.45877L12.0693 0.718823L10.8336 0.0184462L9.8474 1.75839ZM9.93803 7.99941C9.93803 9.13879 9.01438 10.0624 7.875 10.0624V12.0624C10.1189 12.0624 11.938 10.2434 11.938 7.99941H9.93803ZM7.875 5.93637C9.01438 5.93637 9.93803 6.86003 9.93803 7.99941H11.938C11.938 5.75546 10.1189 3.93637 7.875 3.93637V5.93637ZM5.81196 7.99941C5.81196 6.86003 6.73561 5.93637 7.875 5.93637V3.93637C5.63104 3.93637 3.81196 5.75546 3.81196 7.99941H5.81196ZM7.875 10.0624C6.73561 10.0624 5.81196 9.13879 5.81196 7.99941H3.81196C3.81196 10.2434 5.63104 12.0624 7.875 12.0624V10.0624Z" fill="#D3D3D3" mask="url(#path-1-inside-1_939_280)"/>
</svg>
