<svg width="23" height="24" viewBox="0 0 23 24" fill="none" xmlns="http://www.w3.org/2000/svg">
<path fill-rule="evenodd" clip-rule="evenodd" d="M14.0632 0.896231C12.5338 0.0293813 10.6615 0.0293813 9.13216 0.896231L6.16016 2.58076L3.21531 4.31232C1.69991 5.20338 0.763785 6.82479 0.749812 8.5827L0.722656 11.9988L0.749812 15.4149C0.763785 17.1728 1.69991 18.7942 3.21531 19.6852L6.16016 21.4168L9.13216 23.1013C10.6615 23.9682 12.5338 23.9682 14.0632 23.1013L17.0352 21.4168L19.98 19.6852C21.4954 18.7942 22.4315 17.1728 22.4455 15.4149L22.4727 11.9988L22.4455 8.5827C22.4315 6.82479 21.4954 5.20338 19.98 4.31232L17.0352 2.58076L14.0632 0.896231ZM11.5977 16.4988C14.0829 16.4988 16.0977 14.4841 16.0977 11.9988C16.0977 9.5135 14.0829 7.49879 11.5977 7.49879C9.11238 7.49879 7.09766 9.5135 7.09766 11.9988C7.09766 14.4841 9.11238 16.4988 11.5977 16.4988Z" fill="#D3D3D3"/>
</svg>
