<svg width="32" height="34" viewBox="0 0 32 34" fill="none" xmlns="http://www.w3.org/2000/svg">
<path d="M27.9992 19C28.1242 18.5 28.1242 17.875 28.1242 17.25C28.1242 16.625 28.1242 16.125 27.9992 15.5L31.4992 13C31.8742 12.75 31.9992 12.25 31.7492 11.875L28.3742 6.125C28.1242 5.75 27.7492 5.625 27.3742 5.75L23.4992 7.625C22.6242 6.875 21.6242 6.375 20.4992 5.875L20.1242 1.625C20.1242 1.25 19.7492 0.875 19.3742 0.875H12.7492C12.3742 0.875 11.9992 1.25 11.9992 1.625L11.4992 6C10.3742 6.375 9.49921 7 8.49921 7.75L4.62421 6C4.24921 5.875 3.74921 6 3.62421 6.375L0.249205 12.125C-0.000794508 12.5 0.124205 13 0.499205 13.25L3.99921 15.75C3.87421 16.25 3.87421 16.875 3.87421 17.5C3.87421 18.125 3.87421 18.625 3.99921 19.25L0.499205 21.75C0.124205 22 -0.000794508 22.5 0.249205 22.875L3.62421 28.625C3.87421 29 4.24921 29.125 4.62421 29L8.49921 27.25C9.37421 28 10.3742 28.5 11.4992 29L11.8742 33.25C11.8742 33.625 12.2492 34 12.6242 34H19.2492C19.6242 34 19.9992 33.625 19.9992 33.25L20.3742 29C21.4992 28.625 22.3742 28 23.3742 27.25L27.2492 29C27.6242 29.125 28.1242 29 28.2492 28.625L31.6242 22.875C31.8742 22.5 31.7492 22 31.3742 21.75L27.9992 19ZM15.9992 23.5C12.4992 23.5 9.74921 20.75 9.74921 17.25C9.74921 13.75 12.4992 11 15.9992 11C19.4992 11 22.2492 13.75 22.2492 17.25C22.2492 20.75 19.4992 23.5 15.9992 23.5Z" fill="#DAA520"/>
</svg>
